<?xml version="1.0" encoding="utf-8"?>
<!-- Generator: Adobe Illustrator 19.2.1, SVG Export Plug-In . SVG Version: 6.00 Build 0)  -->
<svg version="1.1" id="Layer_1" xmlns="http://www.w3.org/2000/svg" xmlns:xlink="http://www.w3.org/1999/xlink" x="0px" y="0px"
	 viewBox="0 0 232.1 67.9" style="enable-background:new 0 0 232.1 67.9;" xml:space="preserve">
<style type="text/css">
	.st0{fill:#009DCD;}
</style>
<g>
	<path class="st0" d="M16.9,10.4L16.9,10.4c0-3.1-3.1-5.3-7-5.3c-3.9,0-7,2.2-7,5.2v0.1c0,3.3,3.2,5.5,7,5.5
		C13.7,16,16.9,13.7,16.9,10.4L16.9,10.4z M17.8,23.5L17.8,23.5c0-3.4-3.5-5.8-7.9-5.8c-4.4,0-7.9,2.4-7.9,5.7v0.1
		c0,3,2.9,5.7,7.9,5.7C14.9,29.1,17.8,26.5,17.8,23.5L17.8,23.5z M0,23.4L0,23.4c0-3.2,2.6-5.6,5.9-6.7c-2.6-1.1-5-3.1-5-6.2v-0.1
		c0-4.2,4.4-7,9-7c4.6,0,9,2.8,9,7v0.1c0,3.2-2.4,5.2-5,6.2c3.4,1.1,5.9,3.5,5.9,6.6v0.1c0,4.4-4.3,7.5-10,7.5
		C4.3,30.9,0,27.8,0,23.4L0,23.4z"/>
	<path class="st0" d="M45,10.4L45,10.4c0-3.1-3.1-5.3-7-5.3c-3.9,0-7,2.2-7,5.2v0.1c0,3.3,3.2,5.5,7,5.5C41.9,16,45,13.7,45,10.4
		L45,10.4z M46,23.5L46,23.5c0-3.4-3.5-5.8-7.9-5.8c-4.4,0-7.9,2.4-7.9,5.7v0.1c0,3,2.9,5.7,7.9,5.7C43,29.1,46,26.5,46,23.5
		L46,23.5z M28.1,23.4L28.1,23.4c0-3.2,2.6-5.6,5.9-6.7c-2.6-1.1-5-3.1-5-6.2v-0.1c0-4.2,4.4-7,9-7c4.6,0,9,2.8,9,7v0.1
		c0,3.2-2.4,5.2-5,6.2c3.4,1.1,5.9,3.5,5.9,6.6v0.1c0,4.4-4.3,7.5-10,7.5C32.5,30.9,28.1,27.8,28.1,23.4L28.1,23.4z"/>
	<polygon points="71.1,0 73,0 55,35.4 53.1,35.4 71.1,0 	"/>
	<path d="M91.3,28.7c4.6,0,7.5-2.1,7.5-5.5v-0.1c0-3.3-2.9-5.2-8.2-5.2h-9.1v10.8H91.3L91.3,28.7z M90.4,16.1c4,0,6.9-2,6.9-5.5
		v-0.1c0-2.9-2.4-4.9-6.7-4.9h-9v10.5H90.4L90.4,16.1z M79.6,3.8h11.1c3,0,5.5,0.9,7,2.4c1.1,1.1,1.7,2.5,1.7,4.2v0.1
		c0,3.6-2.4,5.5-4.6,6.4c3.2,0.8,6,2.7,6,6.4v0.1c0,4.5-3.8,7.3-9.6,7.3H79.6V3.8L79.6,3.8z"/>
	<path d="M121.7,17.6c4.5,0,7.8-2.3,7.8-6.1v-0.1c0-3.6-2.8-5.9-7.7-5.9h-9.1v12.1H121.7L121.7,17.6z M110.7,3.8H122
		c3.3,0,5.9,1,7.5,2.6c1.3,1.3,2,3.1,2,5v0.1c0,4.5-3.3,7-7.8,7.7l8.8,11.4H130l-8.5-11.1h-0.1h-8.7v11.1h-2V3.8L110.7,3.8z"/>
	<path d="M160.8,21.2l-7-15.5l-7.1,15.5H160.8L160.8,21.2z M152.8,3.6h1.9l12.5,27h-2.2l-3.4-7.5h-15.8l-3.4,7.5h-2.1L152.8,3.6
		L152.8,3.6z"/>
	<polygon points="176.3,3.8 178.1,3.8 196.6,27.1 196.6,3.8 198.5,3.8 198.5,30.5 197,30.5 178.2,6.7 178.2,30.5 176.3,30.5 
		176.3,3.8 	"/>
	<path d="M217.8,28.7c7.5,0,12.2-5.1,12.2-11.5v-0.1c0-6.4-4.7-11.6-12.2-11.6h-6.9v23.1H217.8L217.8,28.7z M208.9,3.8h8.9
		c8.4,0,14.2,5.8,14.2,13.3v0.1c0,7.5-5.8,13.4-14.2,13.4h-8.9V3.8L208.9,3.8z"/>
	<path d="M10.4,55.7c5,0,8.3-2.6,8.3-6.6v-0.1c0-4.2-3.3-6.5-8.1-6.5H3v13.1H10.4L10.4,55.7z M1,40.8h9.7c5.9,0,10,3,10,8.2V49
		c0,5.6-4.9,8.5-10.4,8.5H3v10H1V40.8L1,40.8z"/>
	<path d="M45.2,58.3l-7-15.5L31,58.3H45.2L45.2,58.3z M37.2,40.6h1.9l12.5,27h-2.2L46,60.1H30.2l-3.4,7.5h-2.1L37.2,40.6L37.2,40.6z
		"/>
	<path d="M70.7,54.7c4.5,0,7.8-2.3,7.8-6.1v-0.1c0-3.6-2.8-5.9-7.7-5.9h-9.1v12.1H70.7L70.7,54.7z M59.6,40.8h11.3
		c3.3,0,5.9,1,7.5,2.6c1.3,1.3,2,3.1,2,5v0.1c0,4.5-3.3,7-7.8,7.7l8.8,11.4h-2.5l-8.5-11.1h-0.1h-8.7v11.1h-2V40.8L59.6,40.8z"/>
	<polygon points="98.1,42.6 88.8,42.6 88.8,40.8 109.4,40.8 109.4,42.6 100.1,42.6 100.1,67.6 98.1,67.6 98.1,42.6 	"/>
	<polygon points="118.9,40.8 120.8,40.8 139.3,64.1 139.3,40.8 141.2,40.8 141.2,67.6 139.7,67.6 120.9,43.8 120.9,67.6 118.9,67.6 
		118.9,40.8 	"/>
	<polygon points="152.9,40.8 171.9,40.8 171.9,42.6 154.8,42.6 154.8,53.1 170.2,53.1 170.2,55 154.8,55 154.8,65.7 172.1,65.7 
		172.1,67.6 152.9,67.6 152.9,40.8 	"/>
	<path d="M193.3,54.7c4.5,0,7.8-2.3,7.8-6.1v-0.1c0-3.6-2.8-5.9-7.7-5.9h-9.1v12.1H193.3L193.3,54.7z M182.3,40.8h11.3
		c3.3,0,5.9,1,7.5,2.6c1.3,1.3,2,3.1,2,5v0.1c0,4.5-3.3,7-7.8,7.7l8.8,11.4h-2.5L193,56.5H193h-8.7v11.1h-2V40.8L182.3,40.8z"/>
	<path d="M211.5,63.7l1.3-1.5c2.9,2.7,5.7,4,9.6,4c4,0,6.8-2.3,6.8-5.3v-0.1c0-2.8-1.5-4.5-7.6-5.7c-6.4-1.3-9-3.5-9-7.5v-0.1
		c0-4,3.6-7,8.6-7c3.9,0,6.5,1.1,9.2,3.3l-1.3,1.6c-2.5-2.2-5.1-3-8-3c-3.9,0-6.5,2.3-6.5,5.1v0.1c0,2.8,1.5,4.6,7.8,5.9
		c6.2,1.3,8.8,3.5,8.8,7.4v0.1c0,4.3-3.7,7.3-8.9,7.3C218,67.9,214.7,66.5,211.5,63.7L211.5,63.7z"/>
</g>
</svg>
