<?xml version="1.0" encoding="utf-8"?>
<!-- Generator: Adobe Illustrator 19.2.1, SVG Export Plug-In . SVG Version: 6.00 Build 0)  -->
<svg version="1.1" id="Layer_1" xmlns="http://www.w3.org/2000/svg" xmlns:xlink="http://www.w3.org/1999/xlink" x="0px" y="0px"
	 viewBox="0 0 281.6 80" style="enable-background:new 0 0 281.6 80;" xml:space="preserve">
<style type="text/css">
	.st0{fill:none;stroke:#FFFFFF;stroke-width:2;stroke-miterlimit:10;}
	.st1{fill:#B43E80;}
	.st2{fill:#ED3A66;}
	.st3{fill:#FBAC40;}
	.st4{fill:#B02C4E;}
	.st5{fill:#45A4A6;}
	.st6{fill:#FFFFFF;}
	.st7{fill:#B02A4C;}
	.st8{fill:#633338;}
	.st9{fill:#B12B31;}
	.st10{font-family:'Gotham-Medium';}
	.st11{font-size:11.6533px;}
	.st12{letter-spacing:1;}
</style>
<g id="XMLID_221_">
	<g id="XMLID_1257_">
		<rect id="XMLID_1256_" x="1" y="1" class="st0" width="279.6" height="78"/>
		<line id="XMLID_1255_" class="st0" x1="107" y1="1" x2="107" y2="79"/>
	</g>
	<g id="XMLID_1271_">
		<g id="XMLID_1272_">
			<polygon id="XMLID_1282_" class="st1" points="23.6,63.8 48.6,17.1 73.7,63.8 			"/>
			<polygon id="XMLID_1281_" class="st2" points="33.4,63.8 58.4,17.1 83.4,63.8 			"/>
			<polygon id="XMLID_1280_" class="st3" points="43.7,63.8 68.8,17.1 93.8,63.8 			"/>
			<polygon id="XMLID_1279_" class="st4" points="33.4,63.8 53.5,26.3 73.6,63.8 			"/>
			<polygon id="XMLID_1278_" class="st5" points="13,63.8 38,17.1 63.1,63.8 			"/>
			<polygon id="XMLID_1277_" class="st6" points="63.6,26.9 53.5,45.7 43.4,26.9 23.5,63.8 33.2,63.8 43.4,45 48.6,54.8 48.6,54.8 
				48.6,54.8 53.5,63.8 53.5,63.8 53.5,63.8 63.6,45 73.8,63.8 83.5,63.8 			"/>
			<polygon id="XMLID_1276_" class="st7" points="33.4,63.8 43.4,45.1 53.5,63.8 			"/>
			<polygon id="XMLID_1275_" class="st8" points="43.7,63.8 48.6,54.7 53.5,63.8 			"/>
			<polygon id="XMLID_1274_" class="st9" points="53.5,63.8 63.6,45.1 73.6,63.8 			"/>
			<polygon id="XMLID_1273_" class="st8" points="53.5,63.8 58.4,54.7 63.3,63.8 			"/>
		</g>
	</g>
	<g id="XMLID_1283_">
		<text transform="matrix(1 0 0 1 127.9509 24.9253)"><tspan x="0" y="0" class="st6 st10 st11 st12">THE MILLENNIAL </tspan><tspan x="0" y="17.8" class="st6 st10 st11 st12">RELATIONSHIP TO </tspan><tspan x="0" y="35.6" class="st6 st10 st11 st12">SERVICE BRANDS</tspan></text>
	</g>
</g>
</svg>
