<?xml version="1.0" encoding="utf-8"?>
<!-- Generator: Adobe Illustrator 19.2.1, SVG Export Plug-In . SVG Version: 6.00 Build 0)  -->
<svg version="1.1" id="Layer_1" xmlns="http://www.w3.org/2000/svg" xmlns:xlink="http://www.w3.org/1999/xlink" x="0px" y="0px"
	 viewBox="0 0 281.6 80" style="enable-background:new 0 0 281.6 80;" xml:space="preserve">
<style type="text/css">
	.st0{fill:none;stroke:#FFFFFF;stroke-width:2;stroke-miterlimit:10;}
	.st1{fill:#B53C7F;}
	.st2{fill:#EE3765;}
	.st3{fill:#FBAC3F;}
	.st4{fill:#B12A4D;}
	.st5{fill:#45A4A6;}
	.st6{fill:#FFFFFF;}
	.st7{fill:#B1294B;}
	.st8{fill:#623237;}
	.st9{fill:#B22A31;}
</style>
<g id="XMLID_65_">
	<g id="XMLID_1257_">
		<rect id="XMLID_1256_" x="1" y="1" class="st0" width="279.6" height="78"/>
		<line id="XMLID_1255_" class="st0" x1="107" y1="1" x2="107" y2="79"/>
	</g>
	<g id="XMLID_1271_">
		<g id="XMLID_1272_">
			<polygon id="XMLID_1282_" class="st1" points="23.6,63.8 48.6,17.1 73.7,63.8 			"/>
			<polygon id="XMLID_1281_" class="st2" points="33.4,63.8 58.4,17.1 83.4,63.8 			"/>
			<polygon id="XMLID_1280_" class="st3" points="43.7,63.8 68.8,17.1 93.8,63.8 			"/>
			<polygon id="XMLID_1279_" class="st4" points="33.4,63.8 53.5,26.3 73.6,63.8 			"/>
			<polygon id="XMLID_1278_" class="st5" points="13,63.8 38,17.1 63.1,63.8 			"/>
			<polygon id="XMLID_1277_" class="st6" points="63.6,26.9 53.5,45.7 43.4,26.9 23.5,63.8 33.2,63.8 43.4,45 48.6,54.8 48.6,54.8 
				48.6,54.8 53.5,63.8 53.5,63.8 53.5,63.8 63.6,45 73.8,63.8 83.5,63.8 			"/>
			<polygon id="XMLID_1276_" class="st7" points="33.4,63.8 43.4,45.1 53.5,63.8 			"/>
			<polygon id="XMLID_1275_" class="st8" points="43.7,63.8 48.6,54.7 53.5,63.8 			"/>
			<polygon id="XMLID_1274_" class="st9" points="53.5,63.8 63.6,45.1 73.6,63.8 			"/>
			<polygon id="XMLID_1273_" class="st8" points="53.5,63.8 58.4,54.7 63.3,63.8 			"/>
		</g>
	</g>
	<g id="XMLID_1_">
		<g id="XMLID_749_">
			<path id="XMLID_840_" class="st6" d="M131,18.1h-2.6v-1.3h6.6v1.3h-2.6v6.8H131V18.1z"/>
			<path id="XMLID_838_" class="st6" d="M137.7,16.8h1.4v3.4h3.9v-3.4h1.4v8.2H143v-3.4h-3.9v3.4h-1.4V16.8z"/>
			<path id="XMLID_836_" class="st6" d="M147.7,16.8h6.1V18h-4.6v2.1h4.1v1.3h-4.1v2.2h4.7v1.3h-6.1V16.8z"/>
			<path id="XMLID_834_" class="st6" d="M161.4,16.8h1.5l2.5,3.9l2.5-3.9h1.5v8.2H168v-5.9l-2.6,3.8h0l-2.6-3.8v5.8h-1.4V16.8z"/>
			<path id="XMLID_832_" class="st6" d="M172.7,16.8h1.4v8.2h-1.4V16.8z"/>
			<path id="XMLID_830_" class="st6" d="M177.5,16.8h1.4v6.9h4.3v1.3h-5.7V16.8z"/>
			<path id="XMLID_828_" class="st6" d="M185.9,16.8h1.4v6.9h4.3v1.3h-5.7V16.8z"/>
			<path id="XMLID_826_" class="st6" d="M194.3,16.8h6.1V18h-4.6v2.1h4.1v1.3h-4.1v2.2h4.7v1.3h-6.1V16.8z"/>
			<path id="XMLID_824_" class="st6" d="M203.2,16.8h1.3l4.4,5.6v-5.6h1.4v8.2h-1.2l-4.5-5.8v5.8h-1.4V16.8z"/>
			<path id="XMLID_822_" class="st6" d="M213.6,16.8h1.3l4.4,5.6v-5.6h1.4v8.2h-1.2l-4.5-5.8v5.8h-1.4V16.8z"/>
			<path id="XMLID_820_" class="st6" d="M224.1,16.8h1.4v8.2h-1.4V16.8z"/>
			<path id="XMLID_817_" class="st6" d="M231.7,16.7h1.3l3.6,8.2h-1.5l-0.8-2h-3.9l-0.8,2h-1.5L231.7,16.7z M233.8,21.7l-1.4-3.3
				l-1.4,3.3H233.8z"/>
			<path id="XMLID_815_" class="st6" d="M239.2,16.8h1.4v6.9h4.3v1.3h-5.7V16.8z"/>
			<path id="XMLID_812_" class="st6" d="M129,34.6h3.6c1,0,1.8,0.3,2.4,0.8c0.4,0.4,0.7,1,0.7,1.8v0c0,1.3-0.8,2.1-1.9,2.5l2.2,3.1
				h-1.7l-2-2.8h-1.8v2.8H129V34.6z M132.5,38.6c1,0,1.7-0.5,1.7-1.4v0c0-0.9-0.6-1.4-1.7-1.4h-2.1v2.7H132.5z"/>
			<path id="XMLID_810_" class="st6" d="M138.6,34.6h6.1v1.3H140V38h4.1v1.3H140v2.2h4.7v1.3h-6.1V34.6z"/>
			<path id="XMLID_808_" class="st6" d="M147.6,34.6h1.4v6.9h4.3v1.3h-5.7V34.6z"/>
			<path id="XMLID_805_" class="st6" d="M158.8,34.5h1.3l3.6,8.2h-1.5l-0.8-2h-3.9l-0.8,2h-1.5L158.8,34.5z M160.9,39.5l-1.4-3.3
				l-1.4,3.3H160.9z"/>
			<path id="XMLID_803_" class="st6" d="M167.3,35.9h-2.6v-1.3h6.6v1.3h-2.6v6.8h-1.4V35.9z"/>
			<path id="XMLID_801_" class="st6" d="M174.1,34.6h1.4v8.2h-1.4V34.6z"/>
			<path id="XMLID_798_" class="st6" d="M178.5,38.7L178.5,38.7c0-2.3,1.8-4.2,4.3-4.2c2.5,0,4.3,1.9,4.3,4.2v0
				c0,2.3-1.8,4.2-4.3,4.2C180.2,42.9,178.5,41,178.5,38.7z M185.5,38.7L185.5,38.7c0-1.6-1.2-2.9-2.8-2.9c-1.6,0-2.8,1.3-2.8,2.9v0
				c0,1.6,1.2,2.9,2.8,2.9C184.4,41.5,185.5,40.3,185.5,38.7z"/>
			<path id="XMLID_796_" class="st6" d="M189.9,34.6h1.3l4.4,5.6v-5.6h1.4v8.2h-1.2l-4.5-5.8v5.8h-1.4V34.6z"/>
			<path id="XMLID_794_" class="st6" d="M199.7,41.5l0.9-1c0.8,0.7,1.6,1.1,2.6,1.1c0.9,0,1.4-0.4,1.4-1v0c0-0.6-0.3-0.9-1.8-1.2
				c-1.7-0.4-2.7-0.9-2.7-2.4v0c0-1.4,1.2-2.4,2.8-2.4c1.2,0,2.1,0.4,3,1l-0.8,1.1c-0.7-0.5-1.5-0.8-2.2-0.8c-0.8,0-1.3,0.4-1.3,1v0
				c0,0.6,0.4,0.9,1.9,1.3c1.7,0.4,2.6,1,2.6,2.4v0c0,1.5-1.2,2.4-2.9,2.4C201.9,42.8,200.7,42.4,199.7,41.5z"/>
			<path id="XMLID_792_" class="st6" d="M208.9,34.6h1.4V38h3.9v-3.4h1.4v8.2h-1.4v-3.4h-3.9v3.4h-1.4V34.6z"/>
			<path id="XMLID_790_" class="st6" d="M219,34.6h1.4v8.2H219V34.6z"/>
			<path id="XMLID_787_" class="st6" d="M223.8,34.6h3.2c1.9,0,3.1,1.1,3.1,2.7v0c0,1.8-1.5,2.8-3.3,2.8h-1.6v2.6h-1.4V34.6z
				 M226.9,38.8c1.1,0,1.8-0.6,1.8-1.5v0c0-1-0.7-1.5-1.8-1.5h-1.7v2.9H226.9z"/>
			<path id="XMLID_785_" class="st6" d="M239.4,35.9h-2.6v-1.3h6.6v1.3h-2.6v6.8h-1.4V35.9z"/>
			<path id="XMLID_782_" class="st6" d="M245.3,38.7L245.3,38.7c0-2.3,1.8-4.2,4.3-4.2c2.5,0,4.3,1.9,4.3,4.2v0
				c0,2.3-1.8,4.2-4.3,4.2C247.1,42.9,245.3,41,245.3,38.7z M252.3,38.7L252.3,38.7c0-1.6-1.2-2.9-2.8-2.9c-1.6,0-2.8,1.3-2.8,2.9v0
				c0,1.6,1.2,2.9,2.8,2.9C251.2,41.5,252.3,40.3,252.3,38.7z"/>
			<path id="XMLID_780_" class="st6" d="M128.5,59.3l0.9-1c0.8,0.7,1.6,1.1,2.6,1.1c0.9,0,1.4-0.4,1.4-1v0c0-0.6-0.3-0.9-1.8-1.2
				c-1.7-0.4-2.7-0.9-2.7-2.4v0c0-1.4,1.2-2.4,2.8-2.4c1.2,0,2.1,0.4,3,1l-0.8,1.1c-0.7-0.5-1.5-0.8-2.2-0.8c-0.8,0-1.3,0.4-1.3,1v0
				c0,0.6,0.4,0.9,1.9,1.3c1.7,0.4,2.6,1,2.6,2.4v0c0,1.5-1.2,2.4-2.9,2.4C130.6,60.6,129.4,60.2,128.5,59.3z"/>
			<path id="XMLID_778_" class="st6" d="M137.6,52.4h6.1v1.3h-4.6v2.1h4.1V57h-4.1v2.2h4.7v1.3h-6.1V52.4z"/>
			<path id="XMLID_775_" class="st6" d="M146.6,52.4h3.6c1,0,1.8,0.3,2.4,0.8c0.4,0.4,0.7,1,0.7,1.8v0c0,1.3-0.8,2.1-1.9,2.5
				l2.2,3.1h-1.7l-2-2.8H148v2.8h-1.4V52.4z M150.1,56.4c1,0,1.7-0.5,1.7-1.4v0c0-0.9-0.6-1.4-1.7-1.4H148v2.7H150.1z"/>
			<path id="XMLID_773_" class="st6" d="M155.3,52.4h1.6l2.5,6.3l2.4-6.3h1.6l-3.4,8.2h-1.3L155.3,52.4z"/>
			<path id="XMLID_771_" class="st6" d="M165.9,52.4h1.4v8.2h-1.4V52.4z"/>
			<path id="XMLID_769_" class="st6" d="M170.4,56.5L170.4,56.5c0-2.3,1.7-4.2,4.2-4.2c1.5,0,2.4,0.5,3.2,1.3l-0.9,1.1
				c-0.7-0.6-1.4-1-2.3-1c-1.6,0-2.7,1.3-2.7,2.9v0c0,1.6,1.1,2.9,2.7,2.9c1,0,1.6-0.4,2.3-1l0.9,0.9c-0.9,0.9-1.8,1.4-3.3,1.4
				C172.1,60.7,170.4,58.8,170.4,56.5z"/>
			<path id="XMLID_767_" class="st6" d="M180.5,52.4h6.1v1.3h-4.6v2.1h4.1V57h-4.1v2.2h4.7v1.3h-6.1V52.4z"/>
			<path id="XMLID_763_" class="st6" d="M194.1,52.4h3.7c0.9,0,1.7,0.3,2.1,0.7c0.4,0.4,0.5,0.8,0.5,1.4v0c0,1-0.6,1.5-1.2,1.8
				c1,0.3,1.6,0.9,1.6,2v0c0,1.5-1.2,2.2-3,2.2h-3.8V52.4z M199,54.7c0-0.6-0.5-1-1.4-1h-2.1v2.2h2C198.4,55.8,199,55.4,199,54.7
				L199,54.7z M197.8,57h-2.3v2.2h2.4c1,0,1.6-0.4,1.6-1.1v0C199.5,57.4,198.9,57,197.8,57z"/>
			<path id="XMLID_760_" class="st6" d="M203.7,52.4h3.6c1,0,1.8,0.3,2.4,0.8c0.4,0.4,0.7,1,0.7,1.8v0c0,1.3-0.8,2.1-1.9,2.5
				l2.2,3.1h-1.7l-2-2.8h-1.8v2.8h-1.4V52.4z M207.2,56.4c1,0,1.7-0.5,1.7-1.4v0c0-0.9-0.6-1.4-1.7-1.4h-2.1v2.7H207.2z"/>
			<path id="XMLID_757_" class="st6" d="M216.2,52.3h1.3l3.6,8.2h-1.5l-0.8-2h-3.9l-0.8,2h-1.5L216.2,52.3z M218.2,57.3l-1.4-3.3
				l-1.4,3.3H218.2z"/>
			<path id="XMLID_755_" class="st6" d="M223.7,52.4h1.3l4.4,5.6v-5.6h1.4v8.2h-1.2l-4.5-5.8v5.8h-1.4V52.4z"/>
			<path id="XMLID_752_" class="st6" d="M234,52.4h3c2.6,0,4.3,1.8,4.3,4.1v0c0,2.3-1.8,4.1-4.3,4.1h-3V52.4z M235.5,53.7v5.5h1.6
				c1.7,0,2.8-1.2,2.8-2.8v0c0-1.6-1.1-2.8-2.8-2.8H235.5z"/>
			<path id="XMLID_750_" class="st6" d="M243.6,59.3l0.9-1c0.8,0.7,1.6,1.1,2.6,1.1c0.9,0,1.4-0.4,1.4-1v0c0-0.6-0.3-0.9-1.8-1.2
				c-1.7-0.4-2.7-0.9-2.7-2.4v0c0-1.4,1.2-2.4,2.8-2.4c1.2,0,2.1,0.4,3,1l-0.8,1.1c-0.7-0.5-1.5-0.8-2.2-0.8c-0.8,0-1.3,0.4-1.3,1v0
				c0,0.6,0.4,0.9,1.9,1.3c1.7,0.4,2.6,1,2.6,2.4v0c0,1.5-1.2,2.4-2.9,2.4C245.8,60.6,244.6,60.2,243.6,59.3z"/>
		</g>
	</g>
</g>
</svg>
