<?xml version="1.0" encoding="utf-8"?>
<!-- Generator: Adobe Illustrator 19.2.1, SVG Export Plug-In . SVG Version: 6.00 Build 0)  -->
<svg version="1.1" id="Layer_1" xmlns="http://www.w3.org/2000/svg" xmlns:xlink="http://www.w3.org/1999/xlink" x="0px" y="0px"
	 viewBox="0 0 89 70.1" style="enable-background:new 0 0 89 70.1;" xml:space="preserve">
<style type="text/css">
	.st0{opacity:0.61;fill:#FFFFFF;}
</style>
<g id="XMLID_174_">
	<path class="st0" d="M84.9,70.1H71.4v-2.7H17.5v2.7H4c-2.2,0-4-1.8-4-4V4c0-2.2,1.8-4,4-4h13.5v2.7h53.9V0h13.5c2.2,0,4,1.8,4,4v62
		C89,68.3,87.2,70.1,84.9,70.1z M13.5,8.1V4H4v8.1h9.4V8.1z M13.5,17.5H4v8.1h9.4V17.5z M13.5,31H4v8.1h9.4V31z M13.5,44.5H4v8.1
		h9.4V44.5z M13.5,62v-4H4v8.1h9.4V62z M71.4,8.1H17.5V62h53.9V8.1z M84.9,4h-9.4v4v4h9.4V4z M84.9,17.5h-9.4v8.1h9.4V17.5z
		 M84.9,31h-9.4v8.1h9.4V31z M84.9,44.5h-9.4v8.1h9.4V44.5z M84.9,58h-9.4v4v4h9.4V58z M44.5,16.2c10.4,0,18.9,8.4,18.9,18.9
		s-8.4,18.9-18.9,18.9S25.6,45.5,25.6,35S34.1,16.2,44.5,16.2z M40.4,35v8.2L52.7,35l-12.2-8.2V35z"/>
</g>
</svg>
