<?xml version="1.0" encoding="utf-8"?>
<!-- Generator: Adobe Illustrator 19.2.1, SVG Export Plug-In . SVG Version: 6.00 Build 0)  -->
<svg version="1.1" id="Layer_1" xmlns="http://www.w3.org/2000/svg" xmlns:xlink="http://www.w3.org/1999/xlink" x="0px" y="0px"
	 viewBox="0 0 164.4 57" style="enable-background:new 0 0 164.4 57;" xml:space="preserve">
<style type="text/css">
	.st0{fill:#3E3835;}
	.st1{fill:#F9A41D;}
	.st2{fill:#45BFB3;}
	.st3{fill:none;stroke:#EE613B;stroke-width:5.0147;stroke-linecap:round;stroke-linejoin:round;stroke-miterlimit:10;}
	.st4{fill:none;stroke:#3E3835;stroke-width:5.0147;stroke-linecap:round;stroke-linejoin:round;stroke-miterlimit:10;}
</style>
<g>
	<path class="st0" d="M66.6,53.4c0-6,0-12.1,0-18.1c0-2.5-3.9-2.5-3.9,0c0,6,0,12.1,0,18.1C62.7,55.9,66.6,55.9,66.6,53.4L66.6,53.4
		L66.6,53.4z"/>
	<path class="st1" d="M140.4,11c3.5,7.3,7,14.5,10.6,21.8c1.1,2.3,4.4,0.3,3.4-2c-3.5-7.3-7-14.5-10.6-21.8
		C142.6,6.8,139.3,8.8,140.4,11L140.4,11L140.4,11z"/>
	<g>
		<path class="st0" d="M155.7,36.1c-11.1,0-22.3,0-33.4,0c-2.5,0-2.5,3.9,0,3.9c11.1,0,22.3,0,33.4,0
			C158.2,40.1,158.2,36.1,155.7,36.1L155.7,36.1L155.7,36.1z"/>
		<path class="st0" d="M116.3,54.7C124.2,37.5,132,20.2,139.9,3c1-2.3-2.3-4.3-3.4-2c-7.9,17.2-15.7,34.5-23.6,51.7
			C111.8,55,115.2,57,116.3,54.7L116.3,54.7L116.3,54.7z"/>
		<path class="st0" d="M154,39.1c2.3,5.1,4.6,10.2,6.9,15.3c1,2.3,4.4,0.3,3.4-2c-2.3-5.1-4.6-10.2-6.9-15.3
			C156.3,34.8,152.9,36.8,154,39.1L154,39.1L154,39.1z"/>
		<path class="st2" d="M86.5,27.2C79.7,18.7,72.9,10.1,66,1.6c-1.1-1.4-3.4-0.2-3.4,1.4c0,8.5,0,17.1,0,25.6c0,2.5,3.9,2.5,3.9,0
			c0-8.5,0-17.1,0-25.6c-1.1,0.5-2.2,0.9-3.4,1.4c6.8,8.5,13.7,17.1,20.5,25.6C85.3,32,88.1,29.2,86.5,27.2L86.5,27.2L86.5,27.2z"/>
		<path class="st0" d="M87.7,35.7C92.8,42.4,98,49,103.2,55.6c1.1,1.4,3.4,0.2,3.4-1.4c0-17.1,0-34.2,0-51.2c0-2.5-3.9-2.5-3.9,0
			c0,17.1,0,34.2,0,51.2c0,2.5,3.9,2.5,3.9,0c0-17.1,0-34.2,0-51.2c0-2.5-3.9-2.5-3.9,0c0,17.1,0,34.2,0,51.2
			c1.1-0.5,2.2-0.9,3.4-1.4c-5.2-6.6-10.3-13.3-15.5-19.9C88.9,31,86.1,33.8,87.7,35.7L87.7,35.7L87.7,35.7z"/>
		<path class="st3" d="M2.8,35.4c3.1,10.4,10.7,16.9,20.7,18.6"/>
		<path class="st4" d="M30.8,53.9C42.9,52,52.2,41.2,52.2,28.2c0-14.4-11.3-26-25.1-25.9C13.2,2.3,1.9,14,2,28.3 M33.6,38.3L52.4,55
			"/>
	</g>
</g>
</svg>
