<?xml version="1.0" encoding="utf-8"?>
<!-- Generator: Adobe Illustrator 19.2.1, SVG Export Plug-In . SVG Version: 6.00 Build 0)  -->
<svg version="1.1" id="Layer_1" xmlns="http://www.w3.org/2000/svg" xmlns:xlink="http://www.w3.org/1999/xlink" x="0px" y="0px"
	 viewBox="0 0 1001.1 67.8" style="enable-background:new 0 0 1001.1 67.8;" xml:space="preserve">
<style type="text/css">
	.st0{fill:#FFFFFF;}
	.st1{fill:#2E9697;}
	.st2{fill:#F8A11E;}
	.st3{fill:#E8234E;}
</style>
<g id="XMLID_179_">
	<g id="XMLID_55_">
		<g id="XMLID_756_">
			<path id="XMLID_839_" class="st0" d="M10.5,27.9H4v-3.3h16.6v3.3h-6.5V45h-3.6V27.9z"/>
			<path id="XMLID_837_" class="st0" d="M27.3,24.5h3.6V33h9.8v-8.5h3.6V45h-3.6v-8.6h-9.8V45h-3.6V24.5z"/>
			<path id="XMLID_835_" class="st0" d="M52.4,24.5h15.2v3.2H56v5.3h10.3v3.2H56v5.5h11.7V45H52.4V24.5z"/>
			<path id="XMLID_833_" class="st0" d="M80.9,36.9l-8.1-12.4h4.3l5.7,9l5.8-9h4.1l-8.1,12.3V45h-3.6V36.9z"/>
			<path id="XMLID_831_" class="st0" d="M97.2,31.3c1.8-0.3,2.6-1.2,2.5-2.7h-1.5v-4h3.9V28c0,3.2-1.5,4.6-4.5,4.8L97.2,31.3z"/>
			<path id="XMLID_828_" class="st0" d="M109.5,24.5h9.1c2.6,0,4.6,0.8,5.9,2c1.1,1.1,1.7,2.6,1.7,4.4v0.1c0,3.4-2,5.4-4.8,6.2
				l5.5,7.7h-4.3l-5-7.1h-4.5V45h-3.6V24.5z M118.3,34.7c2.6,0,4.2-1.3,4.2-3.4v-0.1c0-2.2-1.6-3.4-4.2-3.4h-5.2v6.9H118.3z"/>
			<path id="XMLID_826_" class="st0" d="M133.5,24.5h15.2v3.2h-11.6v5.3h10.3v3.2h-10.3v5.5h11.7V45h-15.3V24.5z"/>
			<path id="XMLID_824_" class="st0" d="M167.7,24.5h3.3l11,14.1V24.5h3.5V45h-3l-11.3-14.5V45h-3.5V24.5z"/>
			<path id="XMLID_821_" class="st0" d="M192.8,34.8L192.8,34.8c0-5.8,4.4-10.6,10.7-10.6s10.7,4.8,10.7,10.5v0.1
				c0,5.8-4.4,10.6-10.7,10.6C197.2,45.3,192.8,40.6,192.8,34.8z M210.4,34.8L210.4,34.8c0-4-2.9-7.3-7-7.3c-4.1,0-6.9,3.2-6.9,7.2
				v0.1c0,4,2.9,7.2,7,7.2S210.4,38.8,210.4,34.8z"/>
			<path id="XMLID_819_" class="st0" d="M225.3,27.9h-6.5v-3.3h16.6v3.3H229V45h-3.6V27.9z"/>
			<path id="XMLID_817_" class="st0" d="M242.2,24.5h3.6V33h9.8v-8.5h3.6V45h-3.6v-8.6h-9.8V45h-3.6V24.5z"/>
			<path id="XMLID_815_" class="st0" d="M267.5,24.5h3.6V45h-3.6V24.5z"/>
			<path id="XMLID_813_" class="st0" d="M279.4,24.5h3.3l11,14.1V24.5h3.5V45h-3L283,30.4V45h-3.5V24.5z"/>
			<path id="XMLID_811_" class="st0" d="M304.5,34.8L304.5,34.8c0-5.8,4.4-10.6,10.5-10.6c3.6,0,5.8,1,7.9,2.8l-2.3,2.7
				c-1.6-1.3-3.1-2.2-5.7-2.2c-3.8,0-6.6,3.3-6.6,7.2v0.1c0,4.2,2.8,7.3,7,7.3c1.9,0,3.7-0.6,4.9-1.5v-3.8h-5.2v-3.1h8.7v8.6
				c-2,1.7-4.9,3.2-8.5,3.2C308.7,45.3,304.5,40.8,304.5,34.8z"/>
			<path id="XMLID_809_" class="st0" d="M342.9,24.5h3.6v17.2h10.7V45h-14.3V24.5z"/>
			<path id="XMLID_807_" class="st0" d="M364.1,24.5h3.6V45h-3.6V24.5z"/>
			<path id="XMLID_805_" class="st0" d="M376.1,24.5h3.6v10.3l9.7-10.3h4.4l-8.5,8.8l8.9,11.7h-4.4l-7-9.2l-3.2,3.3V45h-3.6V24.5z"
				/>
			<path id="XMLID_803_" class="st0" d="M400.2,24.5h15.2v3.2h-11.6v5.3h10.3v3.2h-10.3v5.5h11.7V45h-15.3V24.5z"/>
			<path id="XMLID_801_" class="st0" d="M434.1,36.3V24.5h3.6v11.6c0,3.8,2,5.8,5.2,5.8c3.2,0,5.1-1.9,5.1-5.7V24.5h3.6v11.6
				c0,6.1-3.4,9.2-8.8,9.2C437.4,45.3,434.1,42.2,434.1,36.3z"/>
			<path id="XMLID_799_" class="st0" d="M458,42l2.2-2.6c2,1.7,3.9,2.7,6.5,2.7c2.2,0,3.6-1.1,3.6-2.6v-0.1c0-1.5-0.8-2.2-4.6-3.1
				c-4.4-1.1-6.8-2.3-6.8-6.1v-0.1c0-3.5,2.9-5.9,7-5.9c3,0,5.3,0.9,7.4,2.6l-1.9,2.7c-1.8-1.4-3.7-2.1-5.5-2.1
				c-2.1,0-3.3,1.1-3.3,2.4v0.1c0,1.6,0.9,2.3,4.9,3.2c4.3,1.1,6.5,2.6,6.5,6v0.1c0,3.8-3,6.1-7.3,6.1C463.4,45.3,460.5,44.2,458,42
				z"/>
			<path id="XMLID_797_" class="st0" d="M537.4,27.9h-6.5v-3.3h16.6v3.3h-6.5V45h-3.6V27.9z"/>
			<path id="XMLID_795_" class="st0" d="M554.2,24.5h3.6V33h9.8v-8.5h3.6V45h-3.6v-8.6h-9.8V45h-3.6V24.5z"/>
			<path id="XMLID_793_" class="st0" d="M579.4,24.5h15.2v3.2H583v5.3h10.3v3.2H583v5.5h11.7V45h-15.3V24.5z"/>
			<path id="XMLID_791_" class="st0" d="M607.9,36.9l-8.1-12.4h4.3l5.7,9l5.8-9h4.1l-8.1,12.3V45h-3.6V36.9z"/>
			<path id="XMLID_789_" class="st0" d="M624.2,31.3c1.8-0.3,2.6-1.2,2.5-2.7h-1.5v-4h3.9V28c0,3.2-1.5,4.6-4.5,4.8L624.2,31.3z"/>
			<path id="XMLID_786_" class="st0" d="M636.4,24.5h9.1c2.6,0,4.6,0.8,5.9,2c1.1,1.1,1.7,2.6,1.7,4.4v0.1c0,3.4-2,5.4-4.8,6.2
				l5.5,7.7h-4.3l-5-7.1H640V45h-3.6V24.5z M645.3,34.7c2.6,0,4.2-1.3,4.2-3.4v-0.1c0-2.2-1.6-3.4-4.2-3.4H640v6.9H645.3z"/>
			<path id="XMLID_784_" class="st0" d="M660.5,24.5h15.2v3.2h-11.6v5.3h10.3v3.2h-10.3v5.5h11.7V45h-15.3V24.5z"/>
			<path id="XMLID_782_" class="st0" d="M694.6,24.5h15.2v3.2h-11.6v5.3h10.3v3.2h-10.3v5.5h11.7V45h-15.3V24.5z"/>
			<path id="XMLID_780_" class="st0" d="M734.4,24.5l-7.1,10l7.4,10.5h-4.2l-5.4-7.8l-5.4,7.8h-4.1l7.4-10.4l-7.1-10h4.2l5.1,7.4
				l5.1-7.4H734.4z"/>
			<path id="XMLID_777_" class="st0" d="M748.2,24.4h3.3l9,20.6h-3.8l-2.1-4.9H745l-2.1,4.9h-3.7L748.2,24.4z M753.3,36.9l-3.5-8.2
				l-3.5,8.2H753.3z"/>
			<path id="XMLID_775_" class="st0" d="M764.7,34.8L764.7,34.8c0-5.9,4.4-10.6,10.5-10.6c3.8,0,6,1.3,8,3.2L781,30
				c-1.6-1.5-3.4-2.5-5.7-2.5c-3.9,0-6.7,3.2-6.7,7.2v0.1c0,4,2.8,7.2,6.7,7.2c2.5,0,4.1-1,5.9-2.6l2.3,2.3
				c-2.1,2.2-4.5,3.6-8.3,3.6C769.2,45.3,764.7,40.7,764.7,34.8z"/>
			<path id="XMLID_773_" class="st0" d="M795.1,27.9h-6.5v-3.3h16.6v3.3h-6.5V45h-3.6V27.9z"/>
			<path id="XMLID_771_" class="st0" d="M811.9,24.5h3.6v17.2h10.7V45h-14.3V24.5z"/>
			<path id="XMLID_769_" class="st0" d="M835.2,36.9L827,24.5h4.3l5.7,9l5.8-9h4.1l-8.1,12.3V45h-3.6V36.9z"/>
			<path id="XMLID_767_" class="st0" d="M864.6,24.5h3.6v17.2H879V45h-14.3V24.5z"/>
			<path id="XMLID_765_" class="st0" d="M885.8,24.5h3.6V45h-3.6V24.5z"/>
			<path id="XMLID_763_" class="st0" d="M897.8,24.5h3.6v10.3l9.7-10.3h4.4l-8.5,8.8l8.9,11.7h-4.4l-7-9.2l-3.2,3.3V45h-3.6V24.5z"
				/>
			<path id="XMLID_761_" class="st0" d="M921.9,24.5h15.2v3.2h-11.6v5.3h10.3v3.2h-10.3v5.5h11.7V45h-15.3V24.5z"/>
			<path id="XMLID_759_" class="st0" d="M955.8,36.3V24.5h3.6v11.6c0,3.8,2,5.8,5.2,5.8c3.2,0,5.1-1.9,5.1-5.7V24.5h3.6v11.6
				c0,6.1-3.4,9.2-8.8,9.2C959.2,45.3,955.8,42.2,955.8,36.3z"/>
			<path id="XMLID_757_" class="st0" d="M979.7,42l2.2-2.6c2,1.7,3.9,2.7,6.5,2.7c2.2,0,3.6-1.1,3.6-2.6v-0.1c0-1.5-0.8-2.2-4.6-3.1
				c-4.4-1.1-6.8-2.3-6.8-6.1v-0.1c0-3.5,2.9-5.9,7-5.9c3,0,5.3,0.9,7.4,2.6l-1.9,2.7c-1.8-1.4-3.7-2.1-5.5-2.1
				c-2.1,0-3.3,1.1-3.3,2.4v0.1c0,1.6,0.9,2.3,4.9,3.2c4.3,1.1,6.5,2.6,6.5,6v0.1c0,3.8-3,6.1-7.3,6.1
				C985.1,45.3,982.2,44.2,979.7,42z"/>
		</g>
	</g>
</g>
<g id="XMLID_169_">
	<rect id="XMLID_173_" x="502.1" y="12" class="st1" width="4.3" height="15.9"/>
	<rect id="XMLID_171_" x="502.1" y="27.9" class="st2" width="4.3" height="15.9"/>
	<rect id="XMLID_170_" x="502.1" y="43.8" class="st3" width="4.3" height="15.9"/>
</g>
</svg>
