<?xml version="1.0" encoding="utf-8"?>
<!-- Generator: Adobe Illustrator 19.2.1, SVG Export Plug-In . SVG Version: 6.00 Build 0)  -->
<svg version="1.1" id="Layer_1" xmlns="http://www.w3.org/2000/svg" xmlns:xlink="http://www.w3.org/1999/xlink" x="0px" y="0px"
	 viewBox="0 0 883.8 41" style="enable-background:new 0 0 883.8 41;" xml:space="preserve">
<style type="text/css">
	.st0{fill:#FFFFFF;}
	.st1{fill:#2D9598;}
	.st2{fill:#F9A11B;}
	.st3{fill:#EA204C;}
</style>
<g id="XMLID_1033_">
	<g>
		<g>
			<path class="st0" d="M6.9,15.5H1.1v-3H16v3h-5.8v15.4H6.9V15.5z"/>
			<path class="st0" d="M22,12.5h3.2v7.7h8.8v-7.7h3.2v18.4h-3.2v-7.8h-8.8v7.8H22V12.5z"/>
			<path class="st0" d="M44.7,12.5h13.7v2.9H47.9v4.8h9.2v2.9h-9.2v4.9h10.5v2.9H44.7V12.5z"/>
			<path class="st0" d="M70.3,23.7L63,12.5h3.8l5.1,8.1l5.2-8.1h3.7l-7.3,11.1v7.3h-3.3V23.7z"/>
			<path class="st0" d="M85.1,18.6c1.6-0.3,2.4-1.1,2.3-2.5h-1.4v-3.6h3.5v3.1c0,2.9-1.4,4.2-4.1,4.4L85.1,18.6z"/>
			<path class="st0" d="M96.1,12.5h8.2c2.3,0,4.1,0.7,5.3,1.8c1,1,1.5,2.4,1.5,4v0.1c0,3-1.8,4.8-4.4,5.6l5,7h-3.8l-4.5-6.4h-4.1
				v6.4h-3.2V12.5z M104.1,21.7c2.3,0,3.8-1.2,3.8-3.1v-0.1c0-2-1.4-3.1-3.8-3.1h-4.7v6.2H104.1z"/>
			<path class="st0" d="M117.8,12.5h13.7v2.9H121v4.8h9.2v2.9H121v4.9h10.5v2.9h-13.8V12.5z"/>
			<path class="st0" d="M148.5,12.5h3l9.9,12.7V12.5h3.2v18.4h-2.7l-10.2-13.1v13.1h-3.2V12.5z"/>
			<path class="st0" d="M171.1,21.8L171.1,21.8c0-5.2,4-9.6,9.7-9.6c5.7,0,9.6,4.3,9.6,9.5v0.1c0,5.2-4,9.5-9.7,9.5
				C175.1,31.3,171.1,27,171.1,21.8z M187,21.8L187,21.8c0-3.6-2.6-6.6-6.3-6.6c-3.7,0-6.2,2.9-6.2,6.5v0.1c0,3.6,2.6,6.5,6.3,6.5
				C184.4,28.3,187,25.4,187,21.8z"/>
			<path class="st0" d="M200.5,15.5h-5.8v-3h14.9v3h-5.8v15.4h-3.3V15.5z"/>
			<path class="st0" d="M215.6,12.5h3.2v7.7h8.8v-7.7h3.2v18.4h-3.2v-7.8h-8.8v7.8h-3.2V12.5z"/>
			<path class="st0" d="M238.4,12.5h3.2v18.4h-3.2V12.5z"/>
			<path class="st0" d="M249.2,12.5h3l9.9,12.7V12.5h3.2v18.4h-2.7l-10.2-13.1v13.1h-3.2V12.5z"/>
			<path class="st0" d="M271.8,21.8L271.8,21.8c0-5.2,3.9-9.6,9.5-9.6c3.2,0,5.2,0.9,7.1,2.5l-2.1,2.4c-1.4-1.2-2.8-2-5.2-2
				c-3.4,0-6,3-6,6.5v0.1c0,3.8,2.5,6.6,6.3,6.6c1.7,0,3.3-0.6,4.4-1.4v-3.4h-4.7v-2.8h7.8v7.7c-1.8,1.6-4.4,2.9-7.7,2.9
				C275.6,31.3,271.8,27.2,271.8,21.8z"/>
			<path class="st0" d="M306.4,12.5h3.2V28h9.7v2.9h-12.9V12.5z"/>
			<path class="st0" d="M325.5,12.5h3.2v18.4h-3.2V12.5z"/>
			<path class="st0" d="M336.3,12.5h3.2v9.3l8.8-9.3h4l-7.7,7.9l8,10.5h-3.9l-6.3-8.3l-2.9,2.9v5.3h-3.2V12.5z"/>
			<path class="st0" d="M358,12.5h13.7v2.9h-10.4v4.8h9.2v2.9h-9.2v4.9h10.5v2.9H358V12.5z"/>
			<path class="st0" d="M388.5,23.1V12.5h3.2V23c0,3.4,1.8,5.2,4.7,5.2c2.9,0,4.6-1.7,4.6-5.1V12.5h3.2V23c0,5.5-3.1,8.3-7.9,8.3
				C391.6,31.2,388.5,28.5,388.5,23.1z"/>
			<path class="st0" d="M410.1,28.3l1.9-2.3c1.8,1.5,3.6,2.4,5.8,2.4c2,0,3.3-0.9,3.3-2.3V26c0-1.3-0.7-2-4.2-2.8
				c-3.9-0.9-6.1-2.1-6.1-5.5v-0.1c0-3.2,2.6-5.3,6.3-5.3c2.7,0,4.8,0.8,6.7,2.3l-1.7,2.4c-1.7-1.2-3.3-1.9-5-1.9c-1.9,0-3,1-3,2.2
				v0.1c0,1.4,0.8,2.1,4.4,2.9c3.9,0.9,5.9,2.3,5.9,5.4v0.1c0,3.4-2.7,5.5-6.6,5.5C415,31.2,412.3,30.2,410.1,28.3z"/>
			<path class="st0" d="M466.9,15.5h-5.8v-3H476v3h-5.8v15.4h-3.3V15.5z"/>
			<path class="st0" d="M482.1,12.5h3.2v7.7h8.8v-7.7h3.2v18.4h-3.2v-7.8h-8.8v7.8h-3.2V12.5z"/>
			<path class="st0" d="M504.7,12.5h13.7v2.9h-10.4v4.8h9.2v2.9h-9.2v4.9h10.5v2.9h-13.8V12.5z"/>
			<path class="st0" d="M530.4,23.7l-7.3-11.2h3.8l5.1,8.1l5.2-8.1h3.7l-7.3,11.1v7.3h-3.3V23.7z"/>
			<path class="st0" d="M545.1,18.6c1.6-0.3,2.4-1.1,2.3-2.5H546v-3.6h3.5v3.1c0,2.9-1.4,4.2-4.1,4.4L545.1,18.6z"/>
			<path class="st0" d="M556.1,12.5h8.2c2.3,0,4.1,0.7,5.3,1.8c1,1,1.5,2.4,1.5,4v0.1c0,3-1.8,4.8-4.4,5.6l5,7h-3.8l-4.5-6.4h-4.1
				v6.4h-3.2V12.5z M564.1,21.7c2.3,0,3.8-1.2,3.8-3.1v-0.1c0-2-1.4-3.1-3.8-3.1h-4.7v6.2H564.1z"/>
			<path class="st0" d="M577.8,12.5h13.7v2.9H581v4.8h9.2v2.9H581v4.9h10.5v2.9h-13.8V12.5z"/>
			<path class="st0" d="M608.6,12.5h13.7v2.9h-10.4v4.8h9.2v2.9h-9.2v4.9h10.5v2.9h-13.8V12.5z"/>
			<path class="st0" d="M644.4,12.5l-6.4,9l6.7,9.4h-3.8l-4.9-7l-4.8,7h-3.7l6.7-9.4l-6.4-9h3.8l4.6,6.7l4.6-6.7H644.4z"/>
			<path class="st0" d="M656.8,12.4h3l8.1,18.5h-3.4l-1.9-4.4h-8.7l-1.9,4.4h-3.3L656.8,12.4z M661.4,23.6l-3.2-7.4l-3.2,7.4H661.4z
				"/>
			<path class="st0" d="M671.7,21.8L671.7,21.8c0-5.3,3.9-9.6,9.5-9.6c3.4,0,5.4,1.2,7.2,2.9l-2.1,2.4c-1.5-1.4-3.1-2.3-5.2-2.3
				c-3.5,0-6.1,2.9-6.1,6.5v0.1c0,3.6,2.6,6.5,6.1,6.5c2.3,0,3.7-0.9,5.3-2.4l2.1,2.1c-1.9,2-4,3.3-7.5,3.3
				C675.7,31.3,671.7,27.1,671.7,21.8z"/>
			<path class="st0" d="M699.1,15.5h-5.8v-3h14.9v3h-5.8v15.4h-3.3V15.5z"/>
			<path class="st0" d="M714.2,12.5h3.2V28h9.7v2.9h-12.9V12.5z"/>
			<path class="st0" d="M735.2,23.7l-7.3-11.2h3.8l5.1,8.1l5.2-8.1h3.7l-7.3,11.1v7.3h-3.3V23.7z"/>
			<path class="st0" d="M761.7,12.5h3.2V28h9.7v2.9h-12.9V12.5z"/>
			<path class="st0" d="M780.8,12.5h3.2v18.4h-3.2V12.5z"/>
			<path class="st0" d="M791.6,12.5h3.2v9.3l8.8-9.3h4l-7.7,7.9l8,10.5H804l-6.3-8.3l-2.9,2.9v5.3h-3.2V12.5z"/>
			<path class="st0" d="M813.3,12.5H827v2.9h-10.4v4.8h9.2v2.9h-9.2v4.9h10.5v2.9h-13.8V12.5z"/>
			<path class="st0" d="M843.8,23.1V12.5h3.2V23c0,3.4,1.8,5.2,4.7,5.2c2.9,0,4.6-1.7,4.6-5.1V12.5h3.2V23c0,5.5-3.1,8.3-7.9,8.3
				C846.9,31.2,843.8,28.5,843.8,23.1z"/>
			<path class="st0" d="M865.4,28.3l1.9-2.3c1.8,1.5,3.6,2.4,5.8,2.4c2,0,3.3-0.9,3.3-2.3V26c0-1.3-0.7-2-4.2-2.8
				c-3.9-0.9-6.1-2.1-6.1-5.5v-0.1c0-3.2,2.6-5.3,6.3-5.3c2.7,0,4.8,0.8,6.7,2.3l-1.7,2.4c-1.7-1.2-3.3-1.9-5-1.9c-1.9,0-3,1-3,2.2
				v0.1c0,1.4,0.8,2.1,4.4,2.9c3.9,0.9,5.9,2.3,5.9,5.4v0.1c0,3.4-2.7,5.5-6.6,5.5C870.3,31.2,867.6,30.2,865.4,28.3z"/>
		</g>
	</g>
	<g id="XMLID_1034_">
		<rect id="XMLID_1037_" x="439.2" class="st1" width="3" height="13.7"/>
		<rect id="XMLID_1036_" x="439.2" y="13.7" class="st2" width="3" height="13.7"/>
		<rect id="XMLID_1035_" x="439.2" y="27.3" class="st3" width="3" height="13.7"/>
	</g>
</g>
</svg>
